<?xml version="1.0" encoding="UTF-8"?>
<!-- Do not edit this file with editors other than draw.io -->
<!DOCTYPE svg PUBLIC "-//W3C//DTD SVG 1.1//EN" "http://www.w3.org/Graphics/SVG/1.1/DTD/svg11.dtd">
<svg xmlns="http://www.w3.org/2000/svg" xmlns:xlink="http://www.w3.org/1999/xlink" version="1.1" width="140px" height="140px" viewBox="-0.5 -0.5 140 140" content="&lt;mxfile host=&quot;app.diagrams.net&quot; modified=&quot;2024-06-11T18:13:54.181Z&quot; agent=&quot;Mozilla/5.0 (Windows NT 10.0; Win64; x64) AppleWebKit/537.36 (KHTML, like Gecko) Chrome/125.0.0.0 Safari/537.36&quot; etag=&quot;ilYSDfaUbJ8LSjeI8eGH&quot; version=&quot;24.5.3&quot; type=&quot;google&quot; scale=&quot;1&quot; border=&quot;0&quot;&gt;&#10;  &lt;diagram name=&quot;Page-1&quot; id=&quot;wqC5b-jIOECyr3jdat1H&quot;&gt;&#10;    &lt;mxGraphModel dx=&quot;1434&quot; dy=&quot;818&quot; grid=&quot;1&quot; gridSize=&quot;10&quot; guides=&quot;1&quot; tooltips=&quot;1&quot; connect=&quot;1&quot; arrows=&quot;1&quot; fold=&quot;1&quot; page=&quot;1&quot; pageScale=&quot;1&quot; pageWidth=&quot;827&quot; pageHeight=&quot;1169&quot; math=&quot;0&quot; shadow=&quot;0&quot;&gt;&#10;      &lt;root&gt;&#10;        &lt;mxCell id=&quot;0&quot; /&gt;&#10;        &lt;mxCell id=&quot;1&quot; parent=&quot;0&quot; /&gt;&#10;        &lt;mxCell id=&quot;Eyxbhlp9P8GHB9VGv3Hs-1&quot; value=&quot;&quot; style=&quot;shape=cylinder3;whiteSpace=wrap;html=1;boundedLbl=1;backgroundOutline=1;size=15;&quot; parent=&quot;1&quot; vertex=&quot;1&quot;&gt;&#10;          &lt;mxGeometry x=&quot;290&quot; y=&quot;400&quot; width=&quot;60&quot; height=&quot;80&quot; as=&quot;geometry&quot; /&gt;&#10;        &lt;/mxCell&gt;&#10;        &lt;mxCell id=&quot;Eyxbhlp9P8GHB9VGv3Hs-2&quot; value=&quot;&quot; style=&quot;endArrow=none;html=1;rounded=0;entryX=1;entryY=0.5;entryDx=0;entryDy=0;entryPerimeter=0;curved=1;shadow=0;flowAnimation=0;&quot; parent=&quot;1&quot; edge=&quot;1&quot;&gt;&#10;          &lt;mxGeometry width=&quot;50&quot; height=&quot;50&quot; relative=&quot;1&quot; as=&quot;geometry&quot;&gt;&#10;            &lt;mxPoint x=&quot;290&quot; y=&quot;436&quot; as=&quot;sourcePoint&quot; /&gt;&#10;            &lt;mxPoint x=&quot;350&quot; y=&quot;436&quot; as=&quot;targetPoint&quot; /&gt;&#10;            &lt;Array as=&quot;points&quot;&gt;&#10;              &lt;mxPoint x=&quot;300&quot; y=&quot;445&quot; /&gt;&#10;              &lt;mxPoint x=&quot;340&quot; y=&quot;445&quot; /&gt;&#10;            &lt;/Array&gt;&#10;          &lt;/mxGeometry&gt;&#10;        &lt;/mxCell&gt;&#10;        &lt;mxCell id=&quot;Eyxbhlp9P8GHB9VGv3Hs-3&quot; value=&quot;&quot; style=&quot;endArrow=none;html=1;rounded=0;entryX=1;entryY=0.5;entryDx=0;entryDy=0;entryPerimeter=0;curved=1;shadow=0;flowAnimation=0;&quot; parent=&quot;1&quot; edge=&quot;1&quot;&gt;&#10;          &lt;mxGeometry width=&quot;50&quot; height=&quot;50&quot; relative=&quot;1&quot; as=&quot;geometry&quot;&gt;&#10;            &lt;mxPoint x=&quot;290&quot; y=&quot;452&quot; as=&quot;sourcePoint&quot; /&gt;&#10;            &lt;mxPoint x=&quot;350&quot; y=&quot;452&quot; as=&quot;targetPoint&quot; /&gt;&#10;            &lt;Array as=&quot;points&quot;&gt;&#10;              &lt;mxPoint x=&quot;300&quot; y=&quot;461&quot; /&gt;&#10;              &lt;mxPoint x=&quot;340&quot; y=&quot;461&quot; /&gt;&#10;            &lt;/Array&gt;&#10;          &lt;/mxGeometry&gt;&#10;        &lt;/mxCell&gt;&#10;        &lt;mxCell id=&quot;Eyxbhlp9P8GHB9VGv3Hs-4&quot; value=&quot;&quot; style=&quot;endArrow=none;html=1;rounded=0;strokeWidth=2;&quot; parent=&quot;1&quot; edge=&quot;1&quot;&gt;&#10;          &lt;mxGeometry width=&quot;50&quot; height=&quot;50&quot; relative=&quot;1&quot; as=&quot;geometry&quot;&gt;&#10;            &lt;mxPoint x=&quot;316&quot; y=&quot;436&quot; as=&quot;sourcePoint&quot; /&gt;&#10;            &lt;mxPoint x=&quot;326&quot; y=&quot;436&quot; as=&quot;targetPoint&quot; /&gt;&#10;          &lt;/mxGeometry&gt;&#10;        &lt;/mxCell&gt;&#10;        &lt;mxCell id=&quot;Eyxbhlp9P8GHB9VGv3Hs-5&quot; value=&quot;&quot; style=&quot;endArrow=none;html=1;rounded=0;strokeWidth=2;&quot; parent=&quot;1&quot; edge=&quot;1&quot;&gt;&#10;          &lt;mxGeometry width=&quot;50&quot; height=&quot;50&quot; relative=&quot;1&quot; as=&quot;geometry&quot;&gt;&#10;            &lt;mxPoint x=&quot;317&quot; y=&quot;452&quot; as=&quot;sourcePoint&quot; /&gt;&#10;            &lt;mxPoint x=&quot;327&quot; y=&quot;452&quot; as=&quot;targetPoint&quot; /&gt;&#10;          &lt;/mxGeometry&gt;&#10;        &lt;/mxCell&gt;&#10;        &lt;mxCell id=&quot;Eyxbhlp9P8GHB9VGv3Hs-6&quot; value=&quot;&quot; style=&quot;endArrow=none;html=1;rounded=0;strokeWidth=2;&quot; parent=&quot;1&quot; edge=&quot;1&quot;&gt;&#10;          &lt;mxGeometry width=&quot;50&quot; height=&quot;50&quot; relative=&quot;1&quot; as=&quot;geometry&quot;&gt;&#10;            &lt;mxPoint x=&quot;317&quot; y=&quot;469&quot; as=&quot;sourcePoint&quot; /&gt;&#10;            &lt;mxPoint x=&quot;327&quot; y=&quot;469&quot; as=&quot;targetPoint&quot; /&gt;&#10;          &lt;/mxGeometry&gt;&#10;        &lt;/mxCell&gt;&#10;        &lt;mxCell id=&quot;Eyxbhlp9P8GHB9VGv3Hs-7&quot; value=&quot;&quot; style=&quot;sketch=0;outlineConnect=0;fontColor=#232F3E;gradientColor=none;fillColor=#232F3D;strokeColor=none;dashed=0;verticalLabelPosition=bottom;verticalAlign=top;align=center;html=1;fontSize=12;fontStyle=0;aspect=fixed;pointerEvents=1;shape=mxgraph.aws4.gear;&quot; parent=&quot;1&quot; vertex=&quot;1&quot;&gt;&#10;          &lt;mxGeometry x=&quot;250&quot; y=&quot;370&quot; width=&quot;40&quot; height=&quot;40&quot; as=&quot;geometry&quot; /&gt;&#10;        &lt;/mxCell&gt;&#10;        &lt;mxCell id=&quot;Eyxbhlp9P8GHB9VGv3Hs-8&quot; value=&quot;&quot; style=&quot;sketch=0;outlineConnect=0;fontColor=#232F3E;gradientColor=none;fillColor=#232F3D;strokeColor=none;dashed=0;verticalLabelPosition=bottom;verticalAlign=top;align=center;html=1;fontSize=12;fontStyle=0;aspect=fixed;pointerEvents=1;shape=mxgraph.aws4.gear;&quot; parent=&quot;1&quot; vertex=&quot;1&quot;&gt;&#10;          &lt;mxGeometry x=&quot;350&quot; y=&quot;470&quot; width=&quot;40&quot; height=&quot;40&quot; as=&quot;geometry&quot; /&gt;&#10;        &lt;/mxCell&gt;&#10;        &lt;mxCell id=&quot;Eyxbhlp9P8GHB9VGv3Hs-9&quot; value=&quot;&quot; style=&quot;endArrow=classic;html=1;rounded=0;curved=1;strokeWidth=2;&quot; parent=&quot;1&quot; edge=&quot;1&quot;&gt;&#10;          &lt;mxGeometry width=&quot;50&quot; height=&quot;50&quot; relative=&quot;1&quot; as=&quot;geometry&quot;&gt;&#10;            &lt;mxPoint x=&quot;300&quot; y=&quot;390&quot; as=&quot;sourcePoint&quot; /&gt;&#10;            &lt;mxPoint x=&quot;370&quot; y=&quot;460&quot; as=&quot;targetPoint&quot; /&gt;&#10;            &lt;Array as=&quot;points&quot;&gt;&#10;              &lt;mxPoint x=&quot;330&quot; y=&quot;390&quot; /&gt;&#10;              &lt;mxPoint x=&quot;370&quot; y=&quot;390&quot; /&gt;&#10;              &lt;mxPoint x=&quot;370&quot; y=&quot;430&quot; /&gt;&#10;            &lt;/Array&gt;&#10;          &lt;/mxGeometry&gt;&#10;        &lt;/mxCell&gt;&#10;        &lt;mxCell id=&quot;Eyxbhlp9P8GHB9VGv3Hs-11&quot; value=&quot;&quot; style=&quot;endArrow=classic;html=1;rounded=0;curved=1;strokeWidth=2;&quot; parent=&quot;1&quot; edge=&quot;1&quot;&gt;&#10;          &lt;mxGeometry width=&quot;50&quot; height=&quot;50&quot; relative=&quot;1&quot; as=&quot;geometry&quot;&gt;&#10;            &lt;mxPoint x=&quot;340&quot; y=&quot;490&quot; as=&quot;sourcePoint&quot; /&gt;&#10;            &lt;mxPoint x=&quot;270&quot; y=&quot;420&quot; as=&quot;targetPoint&quot; /&gt;&#10;            &lt;Array as=&quot;points&quot;&gt;&#10;              &lt;mxPoint x=&quot;310&quot; y=&quot;490&quot; /&gt;&#10;              &lt;mxPoint x=&quot;270&quot; y=&quot;490&quot; /&gt;&#10;              &lt;mxPoint x=&quot;270&quot; y=&quot;450&quot; /&gt;&#10;            &lt;/Array&gt;&#10;          &lt;/mxGeometry&gt;&#10;        &lt;/mxCell&gt;&#10;      &lt;/root&gt;&#10;    &lt;/mxGraphModel&gt;&#10;  &lt;/diagram&gt;&#10;&lt;/mxfile&gt;&#10;"><defs/><g><g><path d="M 40 45 C 40 36.72 53.43 30 70 30 C 77.96 30 85.59 31.58 91.21 34.39 C 96.84 37.21 100 41.02 100 45 L 100 95 C 100 103.28 86.57 110 70 110 C 53.43 110 40 103.28 40 95 Z" fill="rgb(255, 255, 255)" stroke="rgb(0, 0, 0)" stroke-miterlimit="10" pointer-events="all"/><path d="M 100 45 C 100 53.28 86.57 60 70 60 C 53.43 60 40 53.28 40 45" fill="none" stroke="rgb(0, 0, 0)" stroke-miterlimit="10" pointer-events="all"/></g><g><path d="M 40 66 Q 50 75 70 75 Q 90 75 100 66" fill="none" stroke="rgb(0, 0, 0)" stroke-miterlimit="10" pointer-events="stroke"/></g><g><path d="M 40 82 Q 50 91 70 91 Q 90 91 100 82" fill="none" stroke="rgb(0, 0, 0)" stroke-miterlimit="10" pointer-events="stroke"/></g><g><path d="M 66 66 L 76 66" fill="none" stroke="rgb(0, 0, 0)" stroke-width="2" stroke-miterlimit="10" pointer-events="stroke"/></g><g><path d="M 67 82 L 77 82" fill="none" stroke="rgb(0, 0, 0)" stroke-width="2" stroke-miterlimit="10" pointer-events="stroke"/></g><g><path d="M 67 99 L 77 99" fill="none" stroke="rgb(0, 0, 0)" stroke-width="2" stroke-miterlimit="10" pointer-events="stroke"/></g><g><rect x="0" y="0" width="40" height="40" fill="none" stroke="none" pointer-events="all"/><path d="M 20 27.1 C 16.09 27.1 12.9 23.91 12.9 20 C 12.9 16.09 16.09 12.9 20 12.9 C 23.91 12.9 27.1 16.09 27.1 20 C 27.1 23.91 23.91 27.1 20 27.1 Z M 20 11.09 C 15.08 11.09 11.09 15.08 11.09 20 C 11.09 24.92 15.08 28.91 20 28.91 C 24.92 28.91 28.91 24.92 28.91 20 C 28.91 15.08 24.92 11.09 20 11.09 Z M 38.18 23.4 L 34.98 23.4 C 34.56 23.4 34.2 23.68 34.1 24.08 C 33.76 25.34 33.22 26.26 32.6 27.32 C 32.39 27.68 32.45 28.13 32.74 28.42 L 35.01 30.67 L 30.65 35.01 L 28.38 32.75 C 28.09 32.46 27.64 32.4 27.28 32.61 L 27.08 32.73 C 26.01 33.34 25.24 33.79 24.08 34.1 C 23.68 34.2 23.4 34.56 23.4 34.98 L 23.4 38.18 L 16.6 38.18 L 16.6 34.98 C 16.6 34.57 16.32 34.21 15.92 34.1 C 14.67 33.77 13.77 33.27 12.64 32.61 C 12.28 32.4 11.83 32.46 11.53 32.75 L 9.29 35.01 L 4.96 30.65 L 7.21 28.38 C 7.5 28.09 7.56 27.64 7.36 27.29 L 7.26 27.12 C 6.63 26.04 6.18 25.25 5.87 24.08 C 5.77 23.68 5.4 23.4 4.99 23.4 L 1.82 23.4 L 1.82 16.6 L 5.02 16.6 C 5.43 16.6 5.79 16.32 5.9 15.92 C 6.24 14.65 6.75 13.71 7.39 12.61 C 7.6 12.26 7.54 11.8 7.25 11.51 L 4.99 9.26 L 9.34 4.91 L 11.61 7.17 C 11.9 7.47 12.35 7.52 12.71 7.32 L 12.87 7.22 C 13.96 6.59 14.74 6.14 15.92 5.83 C 16.32 5.72 16.6 5.36 16.6 4.95 L 16.6 1.82 L 23.4 1.82 L 23.4 5.01 C 23.4 5.42 23.68 5.78 24.08 5.89 C 25.23 6.2 26 6.65 27.07 7.28 L 27.23 7.37 C 27.59 7.59 28.04 7.53 28.33 7.23 L 30.55 4.98 L 34.82 9.32 L 32.59 11.58 C 32.3 11.87 32.25 12.32 32.45 12.67 C 33.09 13.78 33.59 14.66 33.92 15.92 C 34.03 16.32 34.39 16.6 34.8 16.6 L 38.18 16.6 Z M 38.3 14.78 L 35.48 14.78 C 35.18 13.87 34.8 13.13 34.37 12.37 L 36.2 10.52 C 36.85 9.86 36.85 8.78 36.2 8.12 L 31.76 3.63 C 31.12 2.97 29.98 2.97 29.33 3.63 L 27.54 5.45 C 26.8 5.02 26.09 4.64 25.22 4.34 L 25.22 1.7 C 25.22 0.76 24.46 0 23.52 0 L 16.48 0 C 15.54 0 14.78 0.76 14.78 1.7 L 14.78 4.27 C 13.89 4.58 13.16 4.96 12.4 5.4 L 10.55 3.55 C 9.88 2.89 8.81 2.89 8.14 3.55 L 3.62 8.05 C 3.3 8.37 3.12 8.8 3.12 9.26 C 3.12 9.71 3.3 10.14 3.62 10.46 L 5.47 12.31 C 5.04 13.08 4.65 13.86 4.34 14.78 L 1.7 14.78 C 0.77 14.78 0 15.55 0 16.48 L 0 23.52 C 0 24.45 0.77 25.22 1.7 25.22 L 4.32 25.22 C 4.62 26.11 5 26.84 5.43 27.59 L 3.59 29.45 C 2.93 30.11 2.93 31.19 3.59 31.85 L 8.08 36.37 C 8.4 36.7 8.83 36.88 9.29 36.88 L 9.29 36.88 C 9.74 36.88 10.17 36.7 10.5 36.37 L 12.33 34.53 C 13.12 34.97 13.88 35.35 14.78 35.65 L 14.78 38.3 C 14.78 39.23 15.54 40 16.48 40 L 23.52 40 C 24.46 40 25.22 39.23 25.22 38.3 L 25.22 35.65 C 26.11 35.35 26.83 34.97 27.59 34.53 L 29.45 36.38 C 30.11 37.04 31.19 37.04 31.85 36.38 L 36.37 31.88 C 36.7 31.56 36.87 31.13 36.87 30.67 C 36.87 30.22 36.7 29.79 36.37 29.47 L 34.52 27.63 C 34.95 26.89 35.34 26.13 35.65 25.22 L 38.3 25.22 C 39.24 25.22 40 24.45 40 23.52 L 40 16.48 C 40 15.55 39.24 14.78 38.3 14.78 Z" fill="#232f3d" stroke="none" pointer-events="all"/></g><g><rect x="100" y="100" width="40" height="40" fill="none" stroke="none" pointer-events="all"/><path d="M 120 127.1 C 116.09 127.1 112.9 123.91 112.9 120 C 112.9 116.09 116.09 112.9 120 112.9 C 123.91 112.9 127.1 116.09 127.1 120 C 127.1 123.91 123.91 127.1 120 127.1 Z M 120 111.09 C 115.08 111.09 111.09 115.08 111.09 120 C 111.09 124.92 115.08 128.91 120 128.91 C 124.92 128.91 128.91 124.92 128.91 120 C 128.91 115.08 124.92 111.09 120 111.09 Z M 138.18 123.4 L 134.98 123.4 C 134.56 123.4 134.2 123.68 134.1 124.08 C 133.76 125.34 133.22 126.26 132.6 127.32 C 132.39 127.68 132.45 128.13 132.74 128.42 L 135.01 130.67 L 130.65 135.01 L 128.38 132.75 C 128.09 132.46 127.64 132.4 127.28 132.61 L 127.08 132.73 C 126.01 133.34 125.24 133.79 124.08 134.1 C 123.68 134.2 123.4 134.56 123.4 134.98 L 123.4 138.18 L 116.6 138.18 L 116.6 134.98 C 116.6 134.57 116.32 134.21 115.92 134.1 C 114.67 133.77 113.77 133.27 112.64 132.61 C 112.28 132.4 111.83 132.46 111.53 132.75 L 109.29 135.01 L 104.96 130.65 L 107.21 128.38 C 107.5 128.09 107.56 127.64 107.36 127.29 L 107.26 127.12 C 106.63 126.04 106.18 125.25 105.87 124.08 C 105.77 123.68 105.4 123.4 104.99 123.4 L 101.82 123.4 L 101.82 116.6 L 105.02 116.6 C 105.43 116.6 105.79 116.32 105.9 115.92 C 106.24 114.65 106.75 113.71 107.39 112.61 C 107.6 112.26 107.54 111.8 107.25 111.51 L 104.99 109.26 L 109.34 104.91 L 111.61 107.17 C 111.9 107.47 112.35 107.52 112.71 107.32 L 112.87 107.22 C 113.96 106.59 114.74 106.14 115.92 105.83 C 116.32 105.72 116.6 105.36 116.6 104.95 L 116.6 101.82 L 123.4 101.82 L 123.4 105.01 C 123.4 105.42 123.68 105.78 124.08 105.89 C 125.23 106.2 126 106.65 127.07 107.28 L 127.23 107.37 C 127.59 107.59 128.04 107.53 128.33 107.23 L 130.55 104.98 L 134.82 109.32 L 132.59 111.58 C 132.3 111.87 132.25 112.32 132.45 112.67 C 133.09 113.78 133.59 114.66 133.92 115.92 C 134.03 116.32 134.39 116.6 134.8 116.6 L 138.18 116.6 Z M 138.3 114.78 L 135.48 114.78 C 135.18 113.87 134.8 113.13 134.37 112.37 L 136.2 110.52 C 136.85 109.86 136.85 108.78 136.2 108.12 L 131.76 103.63 C 131.12 102.97 129.98 102.97 129.33 103.63 L 127.54 105.45 C 126.8 105.02 126.09 104.64 125.22 104.34 L 125.22 101.7 C 125.22 100.76 124.46 100 123.52 100 L 116.48 100 C 115.54 100 114.78 100.76 114.78 101.7 L 114.78 104.27 C 113.89 104.58 113.16 104.96 112.4 105.4 L 110.55 103.55 C 109.88 102.89 108.81 102.89 108.14 103.55 L 103.62 108.05 C 103.3 108.37 103.12 108.8 103.12 109.26 C 103.12 109.71 103.3 110.14 103.62 110.46 L 105.47 112.31 C 105.04 113.08 104.65 113.86 104.34 114.78 L 101.7 114.78 C 100.77 114.78 100 115.55 100 116.48 L 100 123.52 C 100 124.45 100.77 125.22 101.7 125.22 L 104.32 125.22 C 104.62 126.11 105 126.84 105.43 127.59 L 103.59 129.45 C 102.93 130.11 102.93 131.19 103.59 131.85 L 108.08 136.37 C 108.4 136.7 108.83 136.88 109.29 136.88 L 109.29 136.88 C 109.74 136.88 110.17 136.7 110.5 136.37 L 112.33 134.53 C 113.12 134.97 113.88 135.35 114.78 135.65 L 114.78 138.3 C 114.78 139.23 115.54 140 116.48 140 L 123.52 140 C 124.46 140 125.22 139.23 125.22 138.3 L 125.22 135.65 C 126.11 135.35 126.83 134.97 127.59 134.53 L 129.45 136.38 C 130.11 137.04 131.19 137.04 131.85 136.38 L 136.37 131.88 C 136.7 131.56 136.87 131.13 136.87 130.67 C 136.87 130.22 136.7 129.79 136.37 129.47 L 134.52 127.63 C 134.95 126.89 135.34 126.13 135.65 125.22 L 138.3 125.22 C 139.24 125.22 140 124.45 140 123.52 L 140 116.48 C 140 115.55 139.24 114.78 138.3 114.78 Z" fill="#232f3d" stroke="none" pointer-events="all"/></g><g><path d="M 50 20 Q 80 20 100 20 Q 120 20 120 40 Q 120 60 120 81.76" fill="none" stroke="rgb(0, 0, 0)" stroke-width="2" stroke-miterlimit="10" pointer-events="stroke"/><path d="M 120 87.76 L 116 79.76 L 120 81.76 L 124 79.76 Z" fill="rgb(0, 0, 0)" stroke="rgb(0, 0, 0)" stroke-width="2" stroke-miterlimit="10" pointer-events="all"/></g><g><path d="M 90 120 Q 60 120 40 120 Q 20 120 20 100 Q 20 80 20 58.24" fill="none" stroke="rgb(0, 0, 0)" stroke-width="2" stroke-miterlimit="10" pointer-events="stroke"/><path d="M 20 52.24 L 24 60.24 L 20 58.24 L 16 60.24 Z" fill="rgb(0, 0, 0)" stroke="rgb(0, 0, 0)" stroke-width="2" stroke-miterlimit="10" pointer-events="all"/></g></g></svg>