<?xml version="1.0" encoding="UTF-8"?>
<!-- Do not edit this file with editors other than draw.io -->
<!DOCTYPE svg PUBLIC "-//W3C//DTD SVG 1.1//EN" "http://www.w3.org/Graphics/SVG/1.1/DTD/svg11.dtd">
<svg xmlns="http://www.w3.org/2000/svg" xmlns:xlink="http://www.w3.org/1999/xlink" version="1.1" width="117px" height="99px" viewBox="-0.5 -0.5 117 99" content="&lt;mxfile host=&quot;app.diagrams.net&quot; modified=&quot;2024-06-11T18:28:52.942Z&quot; agent=&quot;Mozilla/5.0 (Windows NT 10.0; Win64; x64) AppleWebKit/537.36 (KHTML, like Gecko) Chrome/125.0.0.0 Safari/537.36&quot; etag=&quot;g5LXXP0YXAIsUSw9a5Im&quot; version=&quot;24.5.3&quot; type=&quot;google&quot; scale=&quot;1&quot; border=&quot;0&quot;&gt;&#10;  &lt;diagram name=&quot;Page-1&quot; id=&quot;YJvr07XQFnx3jq22ctl0&quot;&gt;&#10;    &lt;mxGraphModel dx=&quot;1434&quot; dy=&quot;818&quot; grid=&quot;1&quot; gridSize=&quot;10&quot; guides=&quot;1&quot; tooltips=&quot;1&quot; connect=&quot;1&quot; arrows=&quot;1&quot; fold=&quot;1&quot; page=&quot;1&quot; pageScale=&quot;1&quot; pageWidth=&quot;827&quot; pageHeight=&quot;1169&quot; math=&quot;0&quot; shadow=&quot;0&quot;&gt;&#10;      &lt;root&gt;&#10;        &lt;mxCell id=&quot;0&quot; /&gt;&#10;        &lt;mxCell id=&quot;1&quot; parent=&quot;0&quot; /&gt;&#10;        &lt;mxCell id=&quot;u3BBSvxLvOrDSLajrRGj-1&quot; value=&quot;&quot; style=&quot;sketch=0;shadow=0;dashed=0;html=1;strokeColor=#666666;fillColor=#666666;labelPosition=center;verticalLabelPosition=bottom;verticalAlign=top;outlineConnect=0;align=center;shape=mxgraph.office.databases.database_cube;&quot; vertex=&quot;1&quot; parent=&quot;1&quot;&gt;&#10;          &lt;mxGeometry x=&quot;385&quot; y=&quot;406&quot; width=&quot;47&quot; height=&quot;52&quot; as=&quot;geometry&quot; /&gt;&#10;        &lt;/mxCell&gt;&#10;        &lt;mxCell id=&quot;u3BBSvxLvOrDSLajrRGj-2&quot; value=&quot;&quot; style=&quot;endArrow=none;html=1;rounded=0;strokeColor=#666666;&quot; edge=&quot;1&quot; parent=&quot;1&quot;&gt;&#10;          &lt;mxGeometry width=&quot;50&quot; height=&quot;50&quot; relative=&quot;1&quot; as=&quot;geometry&quot;&gt;&#10;            &lt;mxPoint x=&quot;355&quot; y=&quot;465&quot; as=&quot;sourcePoint&quot; /&gt;&#10;            &lt;mxPoint x=&quot;385&quot; y=&quot;445&quot; as=&quot;targetPoint&quot; /&gt;&#10;          &lt;/mxGeometry&gt;&#10;        &lt;/mxCell&gt;&#10;        &lt;mxCell id=&quot;u3BBSvxLvOrDSLajrRGj-3&quot; value=&quot;&quot; style=&quot;endArrow=none;html=1;rounded=0;strokeColor=#666666;&quot; edge=&quot;1&quot; parent=&quot;1&quot;&gt;&#10;          &lt;mxGeometry width=&quot;50&quot; height=&quot;50&quot; relative=&quot;1&quot; as=&quot;geometry&quot;&gt;&#10;            &lt;mxPoint x=&quot;432&quot; y=&quot;445&quot; as=&quot;sourcePoint&quot; /&gt;&#10;            &lt;mxPoint x=&quot;462&quot; y=&quot;465&quot; as=&quot;targetPoint&quot; /&gt;&#10;          &lt;/mxGeometry&gt;&#10;        &lt;/mxCell&gt;&#10;        &lt;mxCell id=&quot;u3BBSvxLvOrDSLajrRGj-4&quot; value=&quot;&quot; style=&quot;endArrow=none;html=1;rounded=0;strokeColor=#666666;&quot; edge=&quot;1&quot; target=&quot;u3BBSvxLvOrDSLajrRGj-1&quot; parent=&quot;1&quot;&gt;&#10;          &lt;mxGeometry width=&quot;50&quot; height=&quot;50&quot; relative=&quot;1&quot; as=&quot;geometry&quot;&gt;&#10;            &lt;mxPoint x=&quot;408&quot; y=&quot;376&quot; as=&quot;sourcePoint&quot; /&gt;&#10;            &lt;mxPoint x=&quot;438&quot; y=&quot;396&quot; as=&quot;targetPoint&quot; /&gt;&#10;          &lt;/mxGeometry&gt;&#10;        &lt;/mxCell&gt;&#10;        &lt;mxCell id=&quot;u3BBSvxLvOrDSLajrRGj-5&quot; value=&quot;&quot; style=&quot;ellipse;whiteSpace=wrap;html=1;aspect=fixed;fillColor=#666666;strokeColor=none;&quot; vertex=&quot;1&quot; parent=&quot;1&quot;&gt;&#10;          &lt;mxGeometry x=&quot;405&quot; y=&quot;370&quot; width=&quot;6&quot; height=&quot;6&quot; as=&quot;geometry&quot; /&gt;&#10;        &lt;/mxCell&gt;&#10;        &lt;mxCell id=&quot;u3BBSvxLvOrDSLajrRGj-6&quot; value=&quot;&quot; style=&quot;ellipse;whiteSpace=wrap;html=1;aspect=fixed;fillColor=#666666;strokeColor=none;&quot; vertex=&quot;1&quot; parent=&quot;1&quot;&gt;&#10;          &lt;mxGeometry x=&quot;461&quot; y=&quot;463&quot; width=&quot;6&quot; height=&quot;6&quot; as=&quot;geometry&quot; /&gt;&#10;        &lt;/mxCell&gt;&#10;        &lt;mxCell id=&quot;u3BBSvxLvOrDSLajrRGj-7&quot; value=&quot;&quot; style=&quot;ellipse;whiteSpace=wrap;html=1;aspect=fixed;fillColor=#666666;strokeColor=none;&quot; vertex=&quot;1&quot; parent=&quot;1&quot;&gt;&#10;          &lt;mxGeometry x=&quot;350&quot; y=&quot;463&quot; width=&quot;6&quot; height=&quot;6&quot; as=&quot;geometry&quot; /&gt;&#10;        &lt;/mxCell&gt;&#10;      &lt;/root&gt;&#10;    &lt;/mxGraphModel&gt;&#10;  &lt;/diagram&gt;&#10;&lt;/mxfile&gt;&#10;"><defs/><g><g><path d="M 35 56.77 L 35 49.76 L 41.6 53.6 L 41.6 60.61 Z M 43.07 61.49 L 43.07 54.48 L 49.67 58.32 L 49.67 65.34 Z M 51.13 66.14 L 51.13 59.12 L 57.74 62.97 L 57.74 69.98 Z M 35 65.72 L 35 58.7 L 41.6 62.54 L 41.6 69.55 Z M 43.08 70.44 L 43.07 63.43 L 49.67 67.26 L 49.67 74.27 Z M 51.14 75.08 L 51.13 68.07 L 57.74 71.9 L 57.74 78.91 Z M 35.01 74.8 L 35.01 67.79 L 41.61 71.63 L 41.61 78.64 Z M 43.08 79.52 L 43.08 72.51 L 49.68 76.35 L 49.68 83.36 Z M 51.14 84.16 L 51.14 77.15 L 57.75 80.99 L 57.75 88 Z M 75.41 53.41 L 82 49.59 L 82 56.58 L 75.41 60.4 Z M 67.33 58.07 L 73.93 54.24 L 73.93 61.23 L 67.33 65.07 Z M 59.25 62.79 L 65.86 58.95 L 65.86 65.95 L 59.25 69.77 Z M 75.41 62.34 L 82 58.5 L 82 65.51 L 75.41 69.33 Z M 67.33 66.99 L 73.93 63.17 L 73.93 70.16 L 67.33 73.98 Z M 59.25 71.7 L 65.86 67.88 L 65.86 74.87 L 59.25 78.69 Z M 67.98 48.52 L 74.25 45 L 80.54 48.52 L 74.26 52.12 Z M 60.11 44.02 L 66.39 40.5 L 72.68 44.02 L 66.39 47.62 Z M 52.22 39.52 L 58.51 36 L 64.79 39.52 L 58.51 43.12 Z M 60.03 53.09 L 66.3 49.57 L 72.59 53.09 L 66.3 56.69 Z M 52.16 48.6 L 58.43 45.07 L 64.72 48.6 L 58.44 52.2 Z M 44.28 44.1 L 50.55 40.57 L 56.84 44.1 L 50.55 47.7 Z M 52.21 57.6 L 58.48 54.07 L 64.78 57.59 L 58.49 61.19 Z M 44.35 53.1 L 50.63 49.57 L 56.92 53.1 L 50.63 56.7 Z M 36.46 48.6 L 42.74 45.08 L 49.02 48.6 L 42.74 52.2 Z M 75.4 71.57 L 82 67.75 L 82 74.74 L 75.4 78.56 Z M 67.32 76.23 L 73.92 72.4 L 73.92 79.39 L 67.32 83.21 Z M 59.25 80.93 L 65.85 77.11 L 65.85 84.1 L 59.25 87.92 Z" fill="#666666" stroke="#666666" stroke-miterlimit="10" pointer-events="all"/></g><g><path d="M 5 95 L 35 75" fill="none" stroke="#666666" stroke-miterlimit="10" pointer-events="stroke"/></g><g><path d="M 82 75 L 112 95" fill="none" stroke="#666666" stroke-miterlimit="10" pointer-events="stroke"/></g><g><path d="M 58 6 L 58.27 36" fill="none" stroke="#666666" stroke-miterlimit="10" pointer-events="stroke"/></g><g><ellipse cx="58" cy="3" rx="3" ry="3" fill="#666666" stroke="none" pointer-events="all"/></g><g><ellipse cx="114" cy="96" rx="3" ry="3" fill="#666666" stroke="none" pointer-events="all"/></g><g><ellipse cx="3" cy="96" rx="3" ry="3" fill="#666666" stroke="none" pointer-events="all"/></g></g></svg>